<?xml version="1.0" standalone="no"?>
<!DOCTYPE svg PUBLIC "-//W3C//DTD SVG 20010904//EN"
 "http://www.w3.org/TR/2001/REC-SVG-20010904/DTD/svg10.dtd">
<svg version="1.0" xmlns="http://www.w3.org/2000/svg"
 width="860.000000pt" height="806.000000pt" viewBox="0 0 860.000000 806.000000"
 preserveAspectRatio="xMidYMid meet">

<g transform="translate(0.000000,806.000000) scale(0.100000,-0.100000)"
fill="#000000" stroke="none">
<path d="M4486 7573 c-56 -250 -74 -495 -107 -1473 -5 -173 -13 -384 -17 -469
l-7 -155 -90 -17 c-49 -9 -93 -14 -96 -11 -4 4 -16 99 -28 212 -61 582 -126
1154 -147 1295 -24 151 -61 318 -81 359 -20 43 -43 44 -55 1 -9 -28 -3 -632 7
-850 8 -170 25 -454 35 -585 5 -69 12 -163 15 -210 3 -47 10 -146 15 -220 14
-182 29 -396 40 -560 12 -171 29 -375 36 -418 7 -43 36 -72 73 -72 24 0 30 -5
33 -24 3 -23 5 -23 38 -12 l35 11 8 335 c9 396 11 387 -89 478 -35 33 -64 63
-64 68 0 5 13 24 28 42 25 31 35 35 103 42 40 5 135 12 209 15 l135 6 34 -29
35 -29 -71 -97 -70 -97 20 -84 c12 -47 24 -85 27 -85 3 0 18 20 33 45 16 25
32 47 37 50 9 5 80 -22 80 -31 0 -3 -13 -17 -30 -31 -30 -25 -39 -56 -20 -68
6 -4 85 -3 176 0 l164 8 -26 44 c-31 53 -26 73 16 73 22 0 41 -10 62 -30 17
-17 33 -28 36 -25 3 3 7 40 10 83 5 84 -7 125 -54 194 l-26 37 37 36 c32 32
40 36 73 31 89 -14 289 -26 333 -20 47 6 47 6 67 -32 25 -48 24 -50 57 191 14
105 32 240 40 300 8 61 24 182 35 270 11 88 22 176 25 195 54 431 100 941 90
1006 -14 86 -17 94 -31 94 -33 0 -62 -108 -149 -545 -130 -657 -181 -929 -216
-1145 -18 -107 -33 -196 -35 -198 -4 -6 -195 -34 -200 -29 -5 5 8 241 26 482
10 139 24 367 41 667 14 263 -11 637 -35 521 -19 -92 -48 -282 -61 -410 -24
-235 -64 -612 -85 -813 -12 -102 -23 -207 -25 -235 -19 -188 -30 -259 -61
-395 -36 -155 -29 -143 -77 -135 -23 4 -43 8 -44 9 0 0 9 33 23 72 51 153 67
355 44 559 -11 96 -14 105 -31 88 -18 -18 -86 -424 -108 -643 -7 -69 -13 -87
-31 -102 -52 -42 -50 -71 -50 665 0 662 -12 1323 -29 1634 -8 130 -12 157 -32
192 -12 23 -26 41 -30 41 -4 0 -14 -30 -23 -67z"/>
<path d="M3284 7125 c14 -301 49 -647 117 -1160 22 -165 51 -385 64 -490 14
-104 27 -207 30 -227 l5 -37 -45 16 c-26 8 -52 25 -59 37 -7 11 -39 134 -71
271 -178 779 -392 1571 -447 1652 -29 41 -58 44 -58 6 1 -100 23 -306 44 -412
14 -69 43 -223 66 -341 110 -580 213 -1083 236 -1153 14 -43 32 -108 39 -145
10 -49 21 -73 40 -89 14 -13 30 -23 36 -23 5 0 9 35 9 77 0 83 16 92 22 13 2
-34 7 -44 18 -41 8 2 44 7 79 11 38 5 75 17 92 29 l28 21 6 -21 c4 -11 5 -22
3 -24 -1 -1 -55 -17 -118 -34 -85 -23 -102 -30 -65 -26 213 19 219 19 211 -1
-22 -52 -19 -96 19 -324 l6 -35 -17 30 c-40 72 -92 95 -139 61 -18 -13 -18
-20 -6 -137 16 -156 26 -196 51 -204 20 -6 122 9 142 21 6 4 8 27 5 58 l-6 51
49 -103 c27 -56 56 -105 64 -108 14 -5 218 20 259 32 28 9 20 42 -15 65 -29
17 -46 20 -128 17 l-95 -4 -23 246 c-23 252 -53 475 -121 900 -22 135 -54 335
-71 445 -52 336 -109 652 -147 815 -38 164 -100 390 -110 400 -3 3 -2 -58 1
-135z"/>
<path d="M6224 6813 c-29 -38 -259 -568 -430 -990 -52 -128 -121 -292 -153
-365 -81 -185 -95 -234 -95 -348 -1 -86 2 -101 29 -153 34 -67 42 -75 61 -55
14 14 157 416 457 1284 152 440 209 647 180 658 -8 3 -16 6 -18 6 -1 0 -15
-17 -31 -37z"/>
<path d="M2218 6834 c-4 -3 4 -45 17 -92 23 -85 80 -224 440 -1077 234 -555
318 -756 348 -836 l25 -67 -66 -19 c-63 -19 -68 -22 -76 -56 -6 -25 -5 -45 4
-66 13 -33 24 -37 62 -22 13 5 56 18 97 29 l74 21 -24 -25 c-13 -14 -48 -31
-79 -40 -104 -29 -122 -36 -113 -45 4 -4 57 3 116 18 59 14 109 24 111 22 2
-2 7 -47 10 -99 6 -83 14 -114 71 -267 36 -95 65 -178 65 -183 0 -6 -6 -10
-12 -10 -7 0 -37 67 -67 150 -53 146 -56 149 -80 143 -64 -14 -76 -26 -74 -73
0 -25 15 -87 31 -138 21 -64 27 -94 19 -97 -156 -48 -158 -49 -135 -100 15
-33 51 -42 102 -24 36 12 42 19 54 62 12 43 16 47 43 47 25 0 33 -6 46 -37 19
-46 28 -53 75 -53 35 0 37 1 40 38 l3 37 29 -43 c16 -23 30 -41 32 -39 2 2
-32 147 -76 323 -44 175 -79 326 -77 334 2 8 33 -45 68 -117 61 -127 79 -154
79 -115 0 38 14 44 81 36 66 -7 65 -9 -5 -34 -20 -7 -26 -14 -19 -21 13 -13
213 10 219 25 2 6 1 29 -3 52 l-8 40 -115 -17 c-63 -9 -116 -16 -116 -15 -1 0
-11 36 -23 80 -12 43 -75 191 -140 330 -65 138 -176 375 -246 526 -279 601
-341 733 -436 920 -142 282 -284 538 -315 571 -27 28 -44 35 -56 23z"/>
<path d="M6663 6810 c-12 -19 -91 -206 -176 -415 -85 -209 -187 -456 -227
-550 -39 -93 -96 -242 -126 -330 -55 -158 -88 -229 -145 -307 -46 -65 -37 -80
56 -92 28 -4 64 -9 82 -12 30 -6 32 -4 39 30 5 28 9 34 19 26 14 -12 28 18 98
206 172 461 423 1368 405 1461 -3 14 -8 11 -25 -17z"/>
<path d="M1770 6654 c0 -47 59 -202 487 -1289 253 -644 273 -686 351 -753 62
-54 139 -179 128 -208 -13 -35 -61 17 -212 230 -151 211 -630 856 -841 1131
-104 136 -212 241 -237 232 -12 -5 -11 -14 5 -58 11 -29 26 -64 34 -78 16 -32
288 -450 527 -811 192 -290 228 -355 253 -450 20 -76 47 -133 86 -178 16 -18
29 -43 29 -55 0 -12 6 -44 13 -72 12 -46 14 -48 26 -30 7 11 14 15 17 10 33
-77 179 -324 198 -338 56 -41 37 14 -99 278 -75 146 -133 265 -128 265 4 0 42
-37 84 -82 l75 -82 70 16 c38 8 84 22 102 29 43 18 63 5 79 -53 13 -43 14 -44
48 -40 19 2 35 9 35 14 0 12 -174 429 -270 648 -107 243 -623 1347 -715 1530
-54 108 -115 200 -131 200 -8 0 -14 -3 -14 -6z"/>
<path d="M6988 6063 c-152 -141 -415 -532 -594 -880 -64 -125 -132 -299 -121
-310 3 -2 19 19 36 46 61 95 85 95 47 0 -28 -68 -27 -82 5 -53 49 44 345 546
589 999 23 44 46 85 51 90 10 13 49 155 43 155 -3 0 -28 -21 -56 -47z"/>
<path d="M7053 5887 c-245 -381 -996 -1623 -1021 -1691 -15 -40 -19 -63 -12
-70 13 -13 5 -22 97 134 44 74 174 293 288 485 115 193 250 420 300 505 51 85
172 289 269 453 185 311 194 327 180 327 -5 0 -50 -64 -101 -143z"/>
<path d="M1110 5758 c0 -8 55 -95 123 -194 68 -98 231 -336 363 -529 132 -192
266 -384 298 -425 60 -77 108 -162 120 -215 14 -58 48 -59 127 -3 41 28 58 46
54 57 -15 39 -162 233 -220 291 -71 70 -78 66 -44 -25 16 -42 30 -62 58 -80
26 -16 45 -39 60 -75 24 -57 23 -65 -8 -55 -30 9 -60 49 -348 460 -401 573
-583 820 -583 793z"/>
<path d="M2570 5430 c0 -26 301 -653 327 -680 15 -16 -7 47 -84 240 -66 165
-173 375 -227 445 -15 20 -15 19 -16 -5z"/>
<path d="M7327 5388 c-26 -25 -90 -101 -435 -526 -200 -245 -222 -277 -222
-310 l0 -36 71 69 c150 148 321 365 474 600 162 250 162 249 112 203z"/>
<path d="M3796 5319 c-18 -92 -3 -500 25 -671 l11 -68 64 0 64 0 0 36 c0 36
-64 408 -99 580 -11 50 -28 105 -39 123 l-19 32 -7 -32z"/>
<path d="M4293 5317 c-62 -5 -113 -14 -113 -19 0 -6 6 -8 14 -5 8 3 70 9 138
13 67 4 132 10 143 15 26 10 -34 9 -182 -4z"/>
<path d="M5140 5305 c157 -19 287 -27 270 -17 -14 9 -308 34 -355 31 -11 -1
27 -7 85 -14z"/>
<path d="M1170 5268 c0 -28 350 -459 645 -797 l170 -194 3 41 c7 90 -3 105
-265 395 -295 326 -525 567 -541 567 -7 0 -12 -6 -12 -12z"/>
<path d="M5435 5172 c-17 -15 -47 -41 -67 -59 l-37 -32 -7 -173 c-7 -161 -21
-201 -23 -67 -2 110 -26 139 -115 139 -71 0 -104 -17 -116 -58 -21 -76 -35
-202 -24 -220 21 -33 185 -37 258 -7 17 8 19 5 12 -25 -3 -18 -8 -35 -10 -37
-4 -4 -230 14 -282 22 -31 5 -31 5 -23 53 10 63 11 74 0 68 -4 -3 -14 -26 -21
-50 -11 -39 -16 -46 -49 -53 -32 -8 -36 -12 -33 -39 2 -16 4 -61 5 -101 1 -40
5 -69 8 -65 13 14 49 142 49 172 0 36 0 35 42 11 24 -15 70 -23 176 -32 l142
-13 0 -71 c0 -39 5 -76 10 -81 7 -7 6 -47 -5 -125 -17 -133 -18 -152 -6 -145
5 3 12 32 15 63 4 32 18 132 32 223 14 91 31 208 39 260 8 52 26 172 40 267
15 95 25 179 23 187 -2 11 -10 8 -33 -12z"/>
<path d="M5930 5086 c0 -10 25 -17 83 -25 45 -7 99 -15 120 -18 24 -4 37 -2
37 6 0 12 -9 14 -125 36 -99 19 -115 19 -115 1z"/>
<path d="M7444 4958 c-42 -46 -167 -203 -277 -350 l-199 -267 -71 -3 c-59 -3
-66 -5 -42 -11 103 -29 110 -32 127 -65 l16 -33 20 53 c10 29 25 70 31 90 16
50 53 78 104 78 l40 0 -6 -37 c-5 -32 2 -23 42 52 26 50 96 167 156 260 140
219 184 315 145 315 -4 0 -43 -37 -86 -82z"/>
<path d="M5757 4967 c-26 -34 -217 -500 -217 -530 0 -11 34 -20 138 -36 75
-12 160 -22 187 -23 68 -3 167 11 160 22 -3 5 -30 17 -59 26 -29 9 -64 25 -77
35 l-24 19 45 -5 c25 -3 61 -8 81 -10 l36 -5 16 158 c10 86 17 164 17 172 0
12 -11 14 -55 12 -30 -2 -58 -9 -64 -15 -9 -11 -52 -181 -66 -259 -4 -21 -11
-38 -16 -38 -23 0 -16 58 24 200 48 174 33 158 146 149 82 -6 76 15 -11 38
l-73 20 -5 39 c-5 36 -10 25 -66 -136 -34 -96 -70 -201 -80 -233 -16 -50 -21
-58 -39 -53 -11 3 -28 6 -37 6 -24 0 -23 9 16 153 36 132 60 267 54 307 -3 23
-4 22 -31 -13z"/>
<path d="M4260 4970 c-12 -7 -15 -34 -15 -132 l0 -123 62 2 c101 2 103 5 103
133 0 106 -1 110 -22 114 -57 12 -115 14 -128 6z"/>
<path d="M5982 4958 c-15 -17 -18 -27 -11 -40 10 -18 13 -18 67 18 6 4 -18 44
-27 44 -4 0 -17 -10 -29 -22z"/>
<path d="M1090 4950 c0 -35 104 -188 393 -574 145 -194 146 -196 124 -242 -20
-40 -24 -83 -5 -49 17 32 61 76 90 91 15 8 49 14 76 14 69 0 111 -30 139 -100
l21 -54 7 37 c14 71 -32 127 -128 157 -29 9 -56 33 -110 98 -88 105 -258 300
-390 447 -127 142 -217 215 -217 175z"/>
<path d="M7810 4878 c-41 -35 -104 -92 -140 -128 -57 -57 -273 -296 -308 -341
-11 -15 -1 -21 93 -54 58 -21 108 -35 112 -31 9 8 9 8 -82 54 -88 45 -78 52
34 23 39 -10 81 -17 92 -14 19 5 22 12 33 82 4 21 33 70 75 125 76 101 100
137 165 255 35 63 41 81 29 85 -23 9 -24 9 -103 -56z"/>
<path d="M3433 4845 c-35 -15 -48 -51 -15 -41 9 3 43 8 75 12 63 7 70 15 32
32 -33 15 -52 15 -92 -3z"/>
<path d="M4648 4853 c28 -2 76 -2 105 0 28 2 5 3 -53 3 -58 0 -81 -1 -52 -3z"/>
<path d="M4510 4787 c0 -12 51 -242 55 -245 2 -2 9 15 15 38 12 45 7 87 -18
135 -16 32 -52 82 -52 72z"/>
<path d="M680 4710 c0 -6 23 -52 52 -103 50 -88 72 -112 549 -587 l498 -495 7
-50 7 -50 14 43 c15 42 14 45 -7 74 -27 37 -21 44 20 23 18 -9 34 -14 37 -11
3 2 0 21 -7 40 -12 37 -35 59 -306 293 -150 129 -181 165 -222 254 -26 58 -51
86 -253 278 -208 199 -335 301 -373 301 -9 0 -16 -5 -16 -10z"/>
<path d="M6515 4643 c-51 -13 -97 -89 -70 -117 13 -13 173 -41 182 -32 3 3 8
27 10 53 4 41 1 51 -19 69 -25 23 -70 35 -103 27z"/>
<path d="M5035 4563 l-30 -17 45 -8 c67 -13 182 -14 204 -2 16 10 13 13 -29
28 -62 21 -151 20 -190 -1z"/>
<path d="M4659 4484 c-17 -28 -24 -57 -27 -115 -6 -97 2 -109 69 -109 40 0 51
4 65 25 9 14 13 33 9 44 -3 12 3 37 15 62 19 35 20 45 9 71 -13 32 -55 58 -93
58 -17 0 -31 -10 -47 -36z"/>
<path d="M6395 4489 c-4 -6 -5 -12 -3 -14 2 -2 54 -15 116 -28 146 -31 152
-11 8 26 -120 31 -113 30 -121 16z"/>
<path d="M5050 4481 c76 -14 250 -22 215 -10 -16 6 -82 12 -145 14 -80 3 -101
2 -70 -4z"/>
<path d="M3056 4435 c-22 -33 -6 -39 54 -21 l45 13 -32 17 c-42 21 -48 21 -67
-9z"/>
<path d="M4267 4433 c-9 -8 -8 -144 1 -201 l7 -43 55 33 c64 39 85 73 94 149
l7 56 -47 7 c-60 8 -109 8 -117 -1z"/>
<path d="M6738 4410 c-91 -117 -188 -254 -188 -266 0 -48 65 1 145 109 44 58
79 142 73 174 -3 14 -9 11 -30 -17z"/>
<path d="M4994 4422 c-15 -10 -34 -96 -37 -167 l-2 -60 50 -13 c28 -7 86 -16
130 -19 101 -7 105 -3 117 118 8 79 7 94 -7 109 -26 29 -219 54 -251 32z"/>
<path d="M2252 4338 c17 -43 34 -76 36 -73 7 7 -30 101 -50 126 -12 16 -7 -2
14 -53z"/>
<path d="M3090 4378 c-62 -13 -70 -25 -24 -34 39 -7 83 9 92 34 4 14 -5 14
-68 0z"/>
<path d="M5460 4383 c0 -6 54 -14 120 -19 66 -5 120 -6 120 -3 0 3 -37 9 -82
13 -46 4 -100 9 -120 13 -22 3 -38 1 -38 -4z"/>
<path d="M6324 4317 c-58 -62 -129 -181 -118 -198 11 -18 30 -7 64 36 29 37
36 42 41 27 6 -14 9 -12 18 11 6 16 11 32 11 36 0 5 8 19 19 32 16 21 39 119
28 119 -3 0 -31 -28 -63 -63z"/>
<path d="M7231 4214 c-56 -91 -104 -171 -107 -178 -3 -7 4 -21 16 -31 30 -27
25 -66 -15 -112 -19 -23 -35 -47 -35 -55 0 -8 42 -28 104 -50 l103 -36 36 131
c53 195 52 189 21 220 -14 14 -35 29 -45 32 -10 4 -19 13 -19 21 0 18 -6 18
78 -10 56 -19 72 -22 72 -11 0 7 -14 24 -31 36 l-32 22 34 11 c41 13 50 50 21
86 -26 33 -52 21 -52 -24 0 -44 -9 -66 -25 -66 -23 0 -26 16 -10 54 18 43 19
85 1 109 -12 15 -24 0 -115 -149z"/>
<path d="M6443 4359 c-16 -6 -23 -17 -23 -34 0 -22 4 -25 36 -25 34 0 36 1 29
28 -9 36 -16 42 -42 31z"/>
<path d="M6389 4261 c15 -26 48 -35 92 -23 l34 9 -40 11 c-99 27 -98 27 -86 3z"/>
<path d="M3544 4244 l-61 -15 39 -222 c21 -122 44 -257 50 -300 l12 -78 56 6
c30 4 82 12 116 18 l60 12 -56 250 c-65 288 -75 322 -100 335 -24 13 -40 12
-116 -6z"/>
<path d="M5881 4188 l-94 -70 6 -55 c3 -30 8 -57 10 -59 9 -9 117 20 130 35
17 19 59 203 49 213 -4 4 -49 -25 -101 -64z"/>
<path d="M5416 4093 c-32 -87 -61 -163 -63 -170 -3 -8 5 -9 29 -4 78 18 121
67 121 138 0 44 1 45 31 39 17 -3 51 -8 76 -11 34 -3 39 -2 20 4 -14 5 -36 10
-50 10 -21 1 -30 14 -59 76 -19 41 -37 75 -40 75 -4 0 -33 -71 -65 -157z"/>
<path d="M6635 3909 c-77 -165 -141 -306 -143 -314 -3 -14 6 -18 83 -30 40 -7
40 -7 21 14 -19 21 -19 21 12 34 30 12 31 14 15 30 -16 16 -15 18 15 29 33 13
43 28 17 28 -8 0 -15 5 -15 10 0 6 4 10 8 10 5 0 17 6 28 14 19 14 19 15 0 29
-17 13 -17 14 13 26 34 15 37 21 19 39 -8 8 -5 14 15 23 33 15 34 22 5 41 -22
15 -22 15 15 22 30 6 37 11 32 25 -3 10 12 50 35 95 40 77 40 78 23 107 -10
17 -27 39 -38 49 -20 19 -21 16 -160 -281z"/>
<path d="M6317 4046 c-32 -87 -57 -159 -57 -161 0 -2 24 -9 53 -15 63 -13 102
-2 117 32 12 29 50 205 50 233 0 29 -30 55 -72 61 l-35 6 -56 -156z"/>
<path d="M2786 4157 c-25 -19 -13 -107 15 -107 29 0 49 40 42 83 -6 40 -25 48
-57 24z"/>
<path d="M1730 4149 c-72 -29 -94 -106 -45 -154 45 -46 153 -26 172 32 26 77
-52 152 -127 122z"/>
<path d="M4483 4145 c-18 -8 -33 -19 -33 -25 0 -11 113 -13 175 -2 l40 8 -43
17 c-51 20 -96 21 -139 2z"/>
<path d="M4920 4133 c0 -6 42 -13 93 -17 50 -3 125 -9 165 -13 45 -3 72 -2 72
4 0 6 -46 13 -102 16 -57 4 -131 10 -165 13 -40 4 -63 3 -63 -3z"/>
<path d="M2891 4091 c22 -62 82 -78 135 -35 18 14 18 15 1 10 -10 -3 -36 -9
-56 -12 -35 -6 -40 -4 -60 30 -27 44 -33 46 -20 7z"/>
<path d="M2448 4060 c-8 -19 -32 -55 -52 -79 -42 -51 -37 -61 32 -61 23 0 42
-4 42 -8 0 -4 -16 -23 -35 -42 -43 -42 -32 -57 26 -34 68 26 91 66 45 78 -22
5 -25 12 -31 83 -9 102 -10 104 -27 63z"/>
<path d="M4310 4044 c-14 -36 -12 -51 5 -58 15 -5 22 4 39 62 11 34 -31 31
-44 -4z"/>
<path d="M4953 4059 c-7 -7 -13 -32 -13 -56 0 -26 5 -45 13 -48 6 -2 72 -8
144 -12 l133 -8 6 34 c9 44 -4 63 -52 79 -58 20 -216 27 -231 11z"/>
<path d="M2272 4003 c27 -73 38 -86 38 -46 0 44 -15 80 -39 93 -20 10 -20 10
1 -47z"/>
<path d="M5525 4009 c-14 -26 -77 -252 -72 -255 17 -8 242 -33 247 -27 5 4 14
63 21 130 15 142 13 145 -64 168 -82 24 -114 20 -132 -16z"/>
<path d="M5980 4002 c0 -4 29 -16 64 -25 36 -9 72 -20 80 -23 29 -11 16 16
-16 36 -33 20 -128 29 -128 12z"/>
<path d="M1952 3973 c-20 -55 -21 -63 -7 -76 7 -8 32 -17 54 -21 47 -7 61 -25
90 -109 31 -90 30 -89 74 -69 l38 17 -106 130 c-141 172 -130 162 -143 128z"/>
<path d="M4705 3965 c-22 -8 -42 -15 -44 -15 -2 0 4 -9 13 -19 26 -29 66 -34
150 -20 64 11 74 15 63 27 -33 40 -113 52 -182 27z"/>
<path d="M4095 3949 c-113 -26 -262 -104 -252 -132 2 -7 24 -16 50 -21 46 -8
49 -7 192 74 80 45 145 84 145 86 0 7 -95 2 -135 -7z"/>
<path d="M6877 3943 c-4 -3 -7 -15 -7 -26 0 -16 5 -18 28 -13 15 4 57 9 95 13
72 6 86 17 36 27 -42 8 -144 8 -152 -1z"/>
<path d="M2757 3889 c-30 -16 -36 -23 -28 -37 5 -9 16 -34 25 -55 14 -34 18
-37 36 -27 36 19 51 54 44 99 -8 47 -19 50 -77 20z"/>
<path d="M5763 3894 c-8 -20 -6 -21 61 -29 47 -6 58 -5 54 6 -3 8 -28 19 -57
26 -44 9 -53 9 -58 -3z"/>
<path d="M4328 3857 c-58 -23 -110 -45 -113 -49 -7 -7 52 -118 62 -118 9 0
117 62 136 79 14 12 17 24 12 52 -6 32 -3 39 22 57 45 34 3 27 -119 -21z"/>
<path d="M6884 3865 c-12 -13 -19 -26 -16 -29 3 -3 39 -6 81 -5 l76 0 -40 19
c-30 14 -35 19 -18 19 12 1 25 6 28 11 4 6 -12 10 -42 9 -37 -1 -53 -7 -69
-24z"/>
<path d="M1874 3851 c-18 -11 -33 -30 -36 -45 -3 -14 -5 -26 -4 -26 1 0 17 4
36 10 l35 9 -43 -38 -43 -37 40 -19 c46 -20 47 -23 26 -51 -20 -26 -19 -27 15
-47 34 -20 37 -33 14 -58 -15 -17 -14 -19 21 -33 21 -9 42 -16 48 -16 6 0 -2
-13 -18 -30 -16 -16 -25 -30 -19 -30 5 0 24 -9 42 -20 l33 -20 -21 -27 c-24
-31 -26 -28 44 -53 l29 -11 -26 -27 c-15 -16 -27 -31 -27 -35 0 -4 23 -7 50
-7 28 0 50 -3 50 -7 0 -4 -16 -24 -36 -44 l-37 -38 39 -6 c22 -3 48 -10 58
-14 18 -7 16 -9 -12 -30 -40 -28 -40 -36 -1 -50 25 -8 42 -7 87 8 31 11 58 19
59 18 1 -1 -30 -22 -68 -47 -79 -52 -87 -70 -30 -70 22 0 47 -3 56 -6 14 -6
13 -9 -6 -30 -27 -29 -16 -31 62 -8 73 21 99 39 99 69 0 32 -51 113 -67 108
-9 -3 -13 8 -13 39 0 53 -30 121 -62 142 -19 12 -29 35 -43 93 -10 46 -27 90
-41 106 -13 16 -48 80 -78 142 -34 72 -76 141 -112 185 -32 38 -60 70 -63 70
-4 0 -20 -9 -37 -19z"/>
<path d="M6232 3828 c4 -11 98 -37 141 -38 42 -1 11 18 -55 33 -86 20 -91 21
-86 5z"/>
<path d="M2486 3783 c-74 -62 -59 -81 32 -38 43 20 52 29 52 50 0 37 -30 32
-84 -12z"/>
<path d="M7060 3786 c0 -7 12 -21 26 -31 14 -9 23 -19 21 -22 -3 -3 -65 5
-137 17 -115 19 -154 21 -139 6 10 -10 419 -123 419 -115 0 4 -27 24 -60 44
-33 20 -60 38 -60 40 0 2 24 -3 53 -11 120 -32 116 -11 -10 44 -109 47 -113
48 -113 28z"/>
<path d="M7404 3777 c-37 -32 -25 -48 34 -41 76 9 79 12 42 39 -41 31 -42 31
-76 2z"/>
<path d="M4921 3761 c-18 -11 -35 -258 -21 -295 5 -13 21 -33 36 -45 24 -19
38 -21 108 -19 79 3 81 4 86 30 3 14 17 36 32 47 35 28 42 67 27 138 -7 32
-13 59 -14 61 -2 2 -236 92 -239 92 -1 0 -7 -4 -15 -9z"/>
<path d="M3065 3736 c-22 -7 -34 -14 -26 -17 10 -4 15 -29 19 -87 2 -45 7 -82
11 -82 12 1 123 29 126 32 7 7 -45 152 -57 159 -16 11 -24 10 -73 -5z"/>
<path d="M2535 3680 c-62 -41 -58 -48 19 -30 41 9 56 23 56 53 0 24 -6 22 -75
-23z"/>
<path d="M5430 3711 c0 -10 9 -13 158 -36 90 -15 126 -15 111 -1 -2 2 -56 12
-119 21 -63 9 -123 18 -132 21 -10 3 -18 1 -18 -5z"/>
<path d="M6782 3658 c3 -8 27 -14 64 -16 32 -1 74 -5 91 -8 l33 -5 -30 -60
c-17 -33 -48 -89 -70 -124 -86 -140 -148 -294 -138 -343 2 -11 33 -22 108 -38
58 -12 108 -20 112 -16 4 4 59 115 122 246 122 253 124 259 76 293 -10 7 -20
23 -24 36 -4 20 -14 25 -47 30 -24 3 -50 1 -60 -6 -14 -9 -33 -7 -83 6 -77 20
-160 23 -154 5z"/>
<path d="M5422 3628 c3 -21 13 -25 98 -39 52 -9 98 -14 103 -12 4 2 7 13 7 23
0 20 0 20 -130 40 -85 13 -82 13 -78 -12z"/>
<path d="M2575 3588 l-70 -51 50 7 c54 7 98 33 103 61 8 36 -15 31 -83 -17z"/>
<path d="M3652 3607 l-82 -22 60 -17 c32 -10 66 -18 75 -18 19 0 131 56 140
70 11 17 -105 10 -193 -13z"/>
<path d="M7487 3580 c-15 -26 -27 -50 -27 -53 0 -3 30 -13 66 -23 l66 -18 18
25 c18 22 18 25 2 43 -9 10 -35 31 -57 46 l-41 28 -27 -48z"/>
<path d="M4265 3584 c-53 -15 -104 -23 -124 -20 -95 14 -486 -42 -687 -99 -46
-13 -84 -39 -73 -50 3 -2 89 -15 193 -29 l189 -26 46 28 c92 56 220 90 346 92
91 2 185 19 185 35 0 6 -11 18 -25 25 -34 18 -28 29 25 51 62 25 32 22 -75 -7z"/>
<path d="M6100 3572 c0 -12 447 -175 459 -168 5 4 15 22 21 42 23 68 -10 82
-268 114 -180 22 -212 24 -212 12z"/>
<path d="M5392 3558 c3 -8 47 -19 119 -30 202 -30 235 -21 44 12 -66 11 -131
23 -143 26 -17 3 -23 1 -20 -8z"/>
<path d="M2622 3495 c-85 -59 -75 -77 23 -40 44 16 68 45 59 70 -8 21 -10 20
-82 -30z"/>
<path d="M3131 3501 c-38 -35 -40 -73 -8 -105 18 -18 23 -32 19 -55 -3 -24 1
-38 19 -57 l24 -25 -23 -17 -23 -18 35 -33 c33 -32 34 -35 20 -56 -14 -22 -13
-26 17 -60 26 -30 30 -38 18 -46 -8 -5 -17 -9 -21 -9 -21 0 -3 -22 37 -46 49
-28 55 -39 26 -49 -11 -3 -24 -12 -30 -19 -9 -11 -4 -19 23 -35 28 -18 47 -21
98 -19 55 3 63 6 66 24 2 11 -6 28 -17 38 -15 14 -17 22 -10 35 8 12 -12 79
-80 275 -50 143 -98 270 -106 283 -21 31 -46 29 -84 -6z"/>
<path d="M5392 3477 c-30 -31 -71 -190 -56 -214 7 -12 46 -25 124 -41 163 -33
171 -29 195 113 20 112 0 127 -206 160 -28 4 -40 1 -57 -18z"/>
<path d="M7369 3316 l-47 -73 43 -21 42 -20 39 71 c21 39 40 74 42 77 2 5 -61
40 -71 40 -1 0 -23 -33 -48 -74z"/>
<path d="M3951 3254 c-12 -19 -21 -38 -21 -41 0 -6 88 0 250 17 114 12 192 8
313 -17 71 -15 85 -15 177 1 65 10 158 16 269 16 163 0 170 1 176 21 4 11 5
22 3 24 -2 2 -75 -2 -163 -10 -264 -22 -766 -12 -957 20 -22 3 -30 -2 -47 -31z"/>
<path d="M5300 3201 c0 -12 13 -14 288 -56 25 -4 42 -3 42 3 0 10 -17 13 -185
38 -55 8 -110 16 -122 19 -13 3 -23 1 -23 -4z"/>
<path d="M7286 3165 l-16 -47 38 7 c62 12 66 18 28 54 l-34 33 -16 -47z"/>
<path d="M5343 3130 c-23 -10 -43 -61 -35 -93 2 -9 14 -19 26 -22 71 -15 147
-25 198 -25 50 0 60 3 74 25 15 23 15 27 1 48 -12 18 -39 30 -114 50 -108 29
-117 30 -150 17z"/>
<path d="M2340 2844 c-377 -151 -691 -276 -699 -279 -19 -8 5 -35 32 -35 11 0
86 27 167 60 81 33 197 73 256 89 60 17 141 41 179 54 194 67 715 308 751 348
10 12 14 23 8 28 -5 5 -307 -111 -694 -265z"/>
<path d="M6074 3110 c-28 -5 -64 -15 -80 -21 l-29 -11 25 -10 c14 -5 80 -16
147 -24 220 -26 371 -84 493 -190 60 -53 79 -61 230 -99 36 -9 124 -34 197
-56 150 -45 143 -43 143 -26 0 19 -32 46 -129 111 -160 106 -450 238 -667 301
-99 29 -244 40 -330 25z"/>
<path d="M6692 3068 c2 -6 27 -31 55 -55 l50 -43 17 25 17 25 -67 30 c-74 34
-77 35 -72 18z"/>
<path d="M3833 3060 c-26 -10 -29 -34 -13 -91 11 -38 52 -74 74 -66 8 3 24
-22 44 -71 18 -41 31 -76 30 -78 -2 -1 -32 4 -68 12 -96 20 -286 18 -416 -6
-289 -52 -446 -125 -640 -298 l-59 -52 40 -35 40 -34 25 32 c160 206 360 320
609 348 147 16 308 -14 478 -91 l63 -29 15 51 c14 48 14 52 -4 64 -26 19 -45
72 -71 198 -27 135 -39 156 -89 155 -20 0 -46 -4 -58 -9z"/>
<path d="M4470 3001 c0 -61 7 -71 52 -71 16 0 14 -5 -16 -34 l-36 -33 0 -536
c0 -327 4 -538 9 -542 13 -8 18 27 32 244 13 179 13 183 31 161 l18 -22 1 41
c1 23 3 46 4 51 1 6 3 30 4 55 0 25 5 45 9 45 5 0 12 -102 16 -227 7 -257 15
-353 27 -353 5 0 9 204 9 454 l0 454 -24 29 c-36 44 -46 68 -46 117 0 77 12
88 30 26 13 -43 20 -55 36 -54 10 1 78 28 149 59 129 57 278 100 440 127 l80
13 -30 20 c-26 18 -46 20 -170 19 -153 -1 -240 -17 -393 -73 l-83 -30 6 53 c7
50 6 54 -17 59 -12 4 -49 7 -80 7 l-58 0 0 -59z"/>
<path d="M5643 2960 c-13 -5 -23 -13 -23 -18 0 -5 32 -21 72 -37 111 -44 240
-136 364 -261 l112 -111 51 57 c37 43 47 61 38 68 -35 28 -321 204 -374 231
-69 34 -189 81 -207 80 -6 0 -21 -4 -33 -9z"/>
<path d="M5255 2793 c-3 -21 -13 -76 -22 -123 -27 -132 -17 -171 53 -212 19
-11 34 -26 34 -34 0 -17 -2 -17 -70 1 -30 8 -55 13 -56 12 -2 -1 -12 -56 -23
-122 -12 -66 -35 -196 -52 -290 -17 -93 -46 -253 -64 -355 -18 -102 -43 -240
-56 -308 -12 -67 -19 -125 -16 -128 12 -13 37 6 55 43 11 21 27 78 36 126 16
85 42 157 57 157 4 0 10 -12 14 -27 7 -25 10 -20 26 42 10 39 30 140 44 225
46 278 82 393 150 475 31 39 33 46 25 76 -17 58 -13 66 44 92 30 14 62 36 70
50 15 22 69 237 62 244 -2 2 -61 21 -132 42 -71 21 -139 41 -151 45 -19 6 -23
3 -28 -31z m-91 -865 c-13 -126 -22 -139 -23 -35 -1 81 1 97 14 97 14 0 15
-10 9 -62z"/>
<path d="M2425 2619 c-60 -27 -111 -52 -113 -54 -8 -8 19 -69 40 -92 16 -17
33 -23 65 -23 33 0 50 -7 74 -28 28 -25 31 -33 39 -123 6 -73 14 -108 35 -150
34 -67 87 -149 97 -149 4 0 8 19 10 43 3 38 6 42 31 45 24 3 27 0 27 -29 l0
-32 51 6 c29 4 54 9 57 12 3 3 -3 27 -14 53 -15 38 -28 51 -62 68 -24 11 -54
37 -70 60 -24 35 -27 47 -25 119 2 89 -2 94 -62 96 -22 0 -48 4 -58 8 -17 6
-15 11 17 50 27 33 36 52 36 81 0 38 -31 91 -53 89 -7 0 -61 -23 -122 -50z"/>
<path d="M6202 2146 c-128 -250 -232 -457 -232 -460 0 -24 24 10 74 104 34 66
64 110 73 110 25 0 7 -53 -77 -230 -43 -91 -83 -187 -88 -215 l-10 -50 20 25
c94 115 608 1092 608 1156 0 2 -9 0 -19 -5 -17 -9 -40 -6 -116 19 -1 0 -105
-204 -233 -454z"/>
<path d="M3455 2569 c-132 -22 -171 -57 -139 -125 14 -29 30 -43 80 -65 35
-16 67 -37 72 -46 14 -27 20 -72 37 -258 22 -249 44 -385 62 -385 12 0 13 9 6
53 -10 67 -11 283 0 294 14 14 55 -46 114 -167 34 -68 58 -108 61 -98 6 29
-132 555 -151 574 -2 3 -27 7 -56 11 -28 3 -51 9 -51 12 0 4 15 22 34 40 19
18 37 44 41 58 7 29 -28 114 -47 112 -7 -1 -35 -5 -63 -10z"/>
<path d="M4045 2350 c-15 -17 -17 -31 -12 -97 6 -87 90 -436 113 -470 13 -20
44 -32 44 -17 0 3 -21 112 -46 242 -25 130 -50 265 -56 300 -6 34 -14 62 -18
62 -4 0 -15 -9 -25 -20z"/>
<path d="M5367 2205 c-9 -31 -30 -306 -24 -312 3 -3 16 15 28 39 19 36 23 59
22 143 0 101 -14 171 -26 130z"/>
<path d="M4520 1670 c0 -5 5 -10 10 -10 6 0 10 5 10 10 0 6 -4 10 -10 10 -5 0
-10 -4 -10 -10z"/>
<path d="M5196 1533 c-15 -178 -17 -263 -8 -263 16 0 20 22 29 161 10 169 10
162 -3 166 -8 3 -14 -20 -18 -64z"/>
<path d="M4520 1435 c0 -14 5 -25 10 -25 6 0 10 11 10 25 0 14 -4 25 -10 25
-5 0 -10 -11 -10 -25z"/>
<path d="M4002 1122 c-7 -22 -12 -49 -12 -62 0 -21 1 -21 42 9 40 30 46 31
139 31 l97 0 6 -37 c4 -32 3 -205 -3 -561 -1 -48 -4 -54 -33 -72 l-33 -20 125
0 c122 1 124 1 98 18 -55 33 -58 53 -58 376 l0 296 1396 0 1396 0 35 -35 c19
-19 37 -35 39 -35 2 0 4 27 4 60 l0 60 -1592 0 c-876 0 -1602 3 -1614 6 -17 4
-22 -1 -32 -34z"/>
<path d="M1353 1111 c-142 -42 -229 -138 -252 -277 -25 -160 58 -327 196 -391
62 -29 164 -41 293 -36 170 7 194 32 190 191 -4 120 -4 120 33 142 l32 20
-125 -1 c-104 0 -121 -3 -99 -12 57 -26 59 -31 59 -152 0 -142 2 -140 -134
-140 -90 0 -107 3 -156 27 -103 51 -187 160 -205 266 -30 184 128 352 331 352
97 0 164 -35 211 -108 26 -42 28 -43 34 -21 3 13 9 49 12 80 l7 56 -53 7 c-28
3 -110 9 -182 11 -108 4 -141 2 -192 -14z"/>
<path d="M5747 1009 c-80 -19 -144 -66 -178 -130 -25 -49 -40 -150 -29 -190
26 -89 109 -173 205 -206 94 -32 224 -3 298 66 101 93 96 280 -11 384 -68 66
-188 98 -285 76z m69 -264 c0 -159 -3 -232 -10 -225 -19 19 -13 460 7 460 1 0
2 -106 3 -235z m44 -2 c0 -158 -4 -233 -10 -223 -17 27 -12 460 6 460 2 0 4
-107 4 -237z m-86 127 c9 -126 -2 -350 -18 -350 -31 0 -86 53 -115 111 -25 50
-31 75 -31 126 0 96 48 179 120 206 34 13 37 6 44 -93z m162 81 c69 -42 114
-134 114 -230 -1 -95 -50 -171 -132 -206 l-38 -15 0 235 c0 256 -1 251 56 216z"/>
<path d="M1975 778 c-58 -150 -100 -244 -119 -265 l-28 -33 55 0 c50 0 55 2
50 19 -6 24 33 146 54 166 15 15 115 21 146 9 9 -3 30 -41 47 -85 32 -77 32
-80 14 -94 -17 -13 2 -14 150 -15 163 0 168 1 146 18 -22 18 -22 19 -10 156
19 216 15 214 98 51 39 -77 85 -160 103 -183 l32 -44 95 182 c52 100 98 178
102 173 7 -7 30 -257 30 -327 0 -25 2 -26 68 -25 49 0 61 3 45 9 -12 5 -27 18
-33 30 -11 21 -43 249 -56 400 l-7 84 -29 -34 c-17 -19 -69 -115 -118 -213
l-88 -178 -79 154 c-44 84 -98 182 -121 217 -47 75 -45 79 -67 -115 -20 -178
-42 -321 -50 -335 -10 -15 -54 -12 -86 7 -22 13 -45 53 -102 177 -40 89 -89
198 -108 243 -19 45 -36 83 -39 83 -3 0 -46 -105 -95 -232z m119 38 c14 -46
26 -89 26 -95 0 -7 -23 -11 -60 -11 -33 0 -60 2 -60 5 0 10 62 185 66 185 1 0
14 -38 28 -84z"/>
<path d="M6190 776 l0 -234 -26 -31 -26 -31 82 0 82 0 -31 29 -31 29 -1 119
c-1 65 -2 142 -3 170 -1 29 1 53 4 53 3 0 62 -59 130 -132 118 -125 289 -283
297 -275 2 3 13 380 13 484 0 6 7 19 16 27 14 15 8 16 -63 16 -74 -1 -77 -1
-47 -14 17 -8 34 -21 38 -31 10 -26 7 -355 -3 -355 -5 0 -99 92 -208 205 -109
113 -203 205 -210 205 -10 0 -13 -52 -13 -234z"/>
<path d="M7310 994 c-76 -33 -104 -87 -75 -144 9 -18 61 -79 116 -135 74 -77
99 -110 99 -130 0 -51 -83 -98 -142 -80 -33 10 -68 45 -68 67 0 11 -4 16 -10
13 -5 -3 -10 -24 -10 -45 0 -29 6 -43 22 -54 69 -49 245 22 263 105 12 54 -11
92 -110 184 -98 90 -116 119 -96 161 27 61 124 62 161 1 l19 -30 6 36 c12 60
4 67 -72 67 -38 -1 -84 -8 -103 -16z"/>
<path d="M3138 980 c21 -20 22 -27 22 -242 0 -192 -2 -224 -17 -240 -16 -17
-11 -18 125 -18 77 0 143 3 145 7 3 5 8 23 12 42 l7 35 -32 -27 c-40 -34 -104
-37 -144 -6 -26 20 -27 23 -24 117 l3 97 59 -2 c45 -1 64 -7 82 -24 l24 -22 0
24 c0 13 3 33 6 45 5 20 3 20 -77 12 -46 -4 -87 -4 -92 1 -4 4 -5 49 -1 99 l7
92 54 0 c44 0 58 -5 78 -24 l25 -25 6 27 c3 15 7 33 10 40 2 9 -32 12 -148 12
l-152 0 22 -20z"/>
<path d="M4490 980 c19 -19 20 -33 20 -244 0 -191 -2 -227 -16 -240 -14 -15
-8 -16 62 -16 l78 0 -27 28 c-26 27 -27 33 -27 135 l0 108 158 -3 157 -3 -4
-115 c-2 -86 -7 -119 -19 -132 -14 -17 -10 -18 67 -18 l82 0 -27 24 -28 23 0
215 c-1 168 2 219 13 231 12 16 7 17 -60 17 -67 0 -72 -1 -53 -15 17 -11 22
-29 27 -83 10 -119 19 -112 -160 -112 l-154 0 3 93 c2 50 7 100 12 110 7 15 1
17 -58 17 l-66 0 20 -20z"/>
<path d="M5090 975 c23 -24 23 -28 23 -231 -1 -195 -2 -207 -22 -235 l-22 -29
82 0 82 0 -20 23 c-25 27 -36 84 -27 142 6 42 9 45 36 45 47 0 80 -24 146
-103 78 -94 113 -117 181 -117 56 0 68 15 21 25 -37 8 -116 79 -176 157 l-46
59 37 53 c66 96 55 179 -28 217 -34 15 -66 19 -166 19 l-124 0 23 -25z m218
-28 c47 -43 57 -153 17 -192 -20 -21 -34 -25 -80 -25 l-55 0 0 115 c0 98 2
115 18 124 23 14 72 3 100 -22z"/>
<path d="M6810 989 c13 -6 28 -15 32 -22 4 -7 8 -109 8 -227 0 -179 -3 -219
-16 -238 l-15 -22 133 0 c73 0 138 4 144 8 6 4 14 22 17 40 l7 33 -33 -24
c-47 -36 -70 -40 -116 -21 -49 19 -53 30 -49 144 l3 85 53 -2 c29 -1 64 -9 77
-17 33 -22 35 -21 35 20 l0 37 -85 -7 -85 -6 0 100 0 100 60 0 c51 0 65 -4 85
-24 23 -23 23 -23 29 -2 16 58 20 56 -151 55 -115 0 -151 -3 -133 -10z"/>
<path d="M3627 856 c-49 -18 -67 -34 -84 -73 -44 -107 39 -222 162 -223 162 0
214 194 76 287 -39 26 -95 29 -154 9z m43 -88 c0 -89 -10 -178 -20 -178 -17 0
-61 56 -72 91 -14 50 2 110 39 138 45 36 53 29 53 -51z m17 -65 c-2 -27 -3 -5
-3 47 0 52 1 74 3 48 2 -27 2 -69 0 -95z m30 0 c-2 -27 -3 -5 -3 47 0 52 1 74
3 48 2 -27 2 -69 0 -95z m51 121 c34 -23 52 -67 52 -125 0 -45 -4 -55 -34 -85
-19 -19 -39 -34 -45 -34 -7 0 -11 42 -11 130 0 72 3 130 8 130 4 0 18 -7 30
-16z"/>
<path d="M3943 863 c-59 -4 -62 -5 -54 -26 15 -39 23 -180 13 -224 l-10 -43
35 0 c31 0 34 2 26 23 -7 21 -7 116 1 124 2 2 22 0 44 -5 35 -8 41 -7 45 9 5
17 0 19 -44 16 l-49 -3 0 58 0 58 28 -5 c73 -16 72 -16 72 5 0 15 -6 19 -22
18 -13 -1 -51 -3 -85 -5z"/>
</g>
</svg>
